<?xml version="1.0" encoding="utf-8"?>
<!-- Generator: Adobe Illustrator 27.3.1, SVG Export Plug-In . SVG Version: 6.00 Build 0)  -->
<svg version="1.1" id="Слой_1" xmlns="http://www.w3.org/2000/svg" xmlns:xlink="http://www.w3.org/1999/xlink" x="0px" y="0px"
	 viewBox="0 0 1649 2020" style="enable-background:new 0 0 1649 2020;" xml:space="preserve">
<style type="text/css">
	.st0{opacity:0.985;fill-rule:evenodd;clip-rule:evenodd;fill:#FEFFFE;enable-background:new    ;}
	.st1{opacity:0.887;fill-rule:evenodd;clip-rule:evenodd;fill:#FEFFFE;enable-background:new    ;}
	.st2{opacity:0.904;fill-rule:evenodd;clip-rule:evenodd;fill:#FEFFFE;enable-background:new    ;}
	.st3{opacity:0.97;fill-rule:evenodd;clip-rule:evenodd;fill:#FEFFFE;enable-background:new    ;}
	.st4{opacity:0.883;fill-rule:evenodd;clip-rule:evenodd;fill:#FEFFFE;enable-background:new    ;}
	.st5{opacity:0.912;fill-rule:evenodd;clip-rule:evenodd;fill:#FEFFFE;enable-background:new    ;}
	.st6{opacity:0.95;fill-rule:evenodd;clip-rule:evenodd;fill:#FEFFFE;enable-background:new    ;}
	.st7{opacity:0.888;fill-rule:evenodd;clip-rule:evenodd;fill:#FEFFFE;enable-background:new    ;}
	.st8{opacity:0.986;fill-rule:evenodd;clip-rule:evenodd;fill:#FEFFFE;enable-background:new    ;}
	.st9{opacity:0.976;fill-rule:evenodd;clip-rule:evenodd;fill:#FEFFFE;enable-background:new    ;}
	.st10{opacity:0.965;fill-rule:evenodd;clip-rule:evenodd;fill:#FEFFFE;enable-background:new    ;}
	.st11{opacity:0.894;fill-rule:evenodd;clip-rule:evenodd;fill:#FEFFFE;enable-background:new    ;}
	.st12{opacity:0.993;fill-rule:evenodd;clip-rule:evenodd;fill:#FEFFFE;enable-background:new    ;}
	.st13{opacity:0.989;fill-rule:evenodd;clip-rule:evenodd;fill:#FEFFFE;enable-background:new    ;}
	.st14{opacity:0.991;fill-rule:evenodd;clip-rule:evenodd;fill:#FEFFFE;enable-background:new    ;}
	.st15{opacity:0.983;fill-rule:evenodd;clip-rule:evenodd;fill:#FEFFFE;enable-background:new    ;}
	.st16{opacity:0.924;fill-rule:evenodd;clip-rule:evenodd;fill:#FEFFFE;enable-background:new    ;}
	.st17{opacity:0.943;fill-rule:evenodd;clip-rule:evenodd;fill:#FEFFFE;enable-background:new    ;}
</style>
<g>
	<path class="st0" d="M826.5-0.5c1.3,0,2.7,0,4,0c5.1,2.6,9.9,5.6,14.5,9c1.6,4.6,3.1,9.3,4.5,14c-1.5,4.6-2.9,9.3-4,14
		c0.5,3.8,1.5,7.5,3,11c6.7-3.7,13.3-7.3,20-11c1.2,12.3,1.3,24.7,0.5,37c-3.7,12.3-7.3,24.7-11,37c-5.3,10.2-10.3,20.5-15,31
		c-8.6,8-17.4,15.7-26.5,23c-0.7-0.5-1.2-1.2-1.5-2c-1.9-16.1-4.2-32.1-7-48c-3.5-1.9-7.3-2.5-11.5-2c0.2,7.7,0,15.3-0.5,23
		c-3.1,8.9-6,17.9-8.5,27c-39.6,5.6-79.3,11.1-119,16.5c-10.2,3.1-20.2,6.8-30,11c-8.8,7.8-17.3,16-25.5,24.5
		c-3.5,7.7-7,15.3-10.5,23c0.3,0.3,0.7,0.7,1,1c19.6-10.8,39.9-20,61-27.5c15.3-7.7,30.7-15.3,46-23c21.2-4,42.4-8.2,63.5-12.5
		c8.8,2.4,17.6,4.6,26.5,6.5c7.5,8.8,15,17.7,22.5,26.5c0.8,8,1.6,16,2.5,24c13.3-0.3,26.7,0,40,1c1.2,1.5,1.2,3,0,4.5
		c-6,2.3-12,4.4-18,6.5c-1.3,5.6-1.3,11.1,0,16.5c10.7,0.6,21.3,0.9,32,1c5.1-8.4,10.1-16.9,15-25.5c0.8-0.3,1.7-0.7,2.5-1
		c9.2,2,18.4,4.2,27.5,6.5c1,0.5,1.7,1.4,2,2.5c-2.1,9.9-3.8,19.9-5,30c-11.7-1.4-23.3-2.9-35-4.5c-52.3-1.9-104.7-1.9-157,0
		c-27,3.9-54,7.9-81,12c-31.4,9.5-62.7,19.1-94,29c-31.5,14.3-63.2,28.3-95,42c-32.5,21.4-64.8,43.1-97,65c-23,19-46,38-69,57
		c-22.8,24.2-45.7,48.3-68.5,72.5c-16.8,20.5-33.8,40.9-51,61c-18.2,24.2-36.2,48.5-54,73c-1.5,1.5-3.3,2.3-5.5,2.5
		c-7.6,1.1-15.3,1.9-23,2.5c7.8-14.9,14-30.6,18.5-47c-0.3-5.8-1.6-11.5-4-17c-3.6-0.9-7.1-0.4-10.5,1.5
		c-5.2,3.8-10.3,7.7-15.5,11.5c-13.6,34.9-26.9,69.9-40,105c-1.6,12.6-2.8,25.3-3.5,38c-6.3,0.2-12.7,0-19-0.5c-2.8-1.9-5.8-3.6-9-5
		c-3.5-7-6.5-14.2-9-21.5c0-0.7,0-1.3,0-2c4.8,0,9.4-0.7,14-2c0.3-1.2,0.7-2.3,1-3.5c-1-6.5-1.7-13-2-19.5c6.3,1.8,12.6,3.5,19,5
		c0-2.3,0-4.7,0-7c-3.4-0.3-6.7-0.9-10-2c-1.1-2.7-0.9-5.4,0.5-8c10.7-27.3,21.3-54.7,32-82c0.4-1.4,1.2-2.4,2.5-3
		c2.7,1.3,5.3,2.7,8,4c0.3-0.3,0.7-0.7,1-1c-1.3-2.3-2.7-4.7-4-7c3.2-4.6,6.5-9.1,10-13.5c-2.7-7-5-14.2-7-21.5
		c1.8-6.3,3.8-12.4,6-18.5c-12-11-24-22-36-33c7.8,3.7,15.1,8.4,22,14c8.3,4.2,16.7,8.3,25,12.5c9.4-2.7,18.8-5.7,28-9
		c2.8-5.4,5.5-10.9,8-16.5c-0.7-12.6-1.8-25.1-3.5-37.5c-9.2-10.5-18.3-21-27.5-31.5c-11.7-7.1-22.9-14.9-33.5-23.5
		c-1.2-5.7-2.5-11.4-4-17c-0.7-7-0.7-14,0-21c5.5-6.5,11.3-12.6,17.5-18.5c12-1.3,24-1.7,36-1c6,4.7,12,9.3,18,14
		c3.3,15.8,0.9,30.6-7,44.5c1.7,4.4,3.6,8.7,5.5,13c6.7-2.9,13.5-5.4,20.5-7.5c14.3-17.3,24.8-36.8,31.5-58.5
		c9.4-13.7,18.4-27.7,27-42c13.2-10.6,26.5-20.9,40-31c3.4-16.3,7.7-32.3,13-48c3.9-4.1,7.6-8.5,11-13c4.4-2.1,8.9-4.1,13.5-6
		c3.3,4.4,6,9.2,8,14.5c-8.4,14.3-16.5,28.4-24.5,42.5c11-7.9,22.2-15.5,33.5-23c19.6-31.5,38.4-63.5,56.5-96
		c18.2-13.5,36.7-26.7,55.5-39.5c10.6-9.6,21.6-18.8,33-27.5c3.4,5.6,6.4,11.4,9,17.5c-2.4,6.4-4.8,12.9-7,19.5
		c-37.3,32.4-74.1,65.4-110.5,99c0.7,2.5,2.1,4.8,4,7c1,1.4,2.3,2.1,4,2c17.2-3.2,34.3-6.3,51.5-9.5c31.2-29.2,63.1-57.7,95.5-85.5
		c2.5-5.3,4.9-10.6,7-16c1.2-9.4,2.5-18.7,4-28c5.3-4.7,10.7-9.3,16-14c4.5,4.2,9.4,8,14.5,11.5c0.6,0.7,0.9,1.6,1,2.5
		c-4.2,11-8.3,22-12.5,33c-19.3,26-40.2,50.8-62.5,74.5c0.3,0.2,0.7,0.3,1,0.5c40-27.3,80.3-54.2,121-80.5c22-20,44-40,66-60
		c24-3.2,48-6.3,72-9.5c0.3,1.2,0.7,2.3,1,3.5c-1,7.2-2,14.3-3,21.5c2.4,0.3,4.8,0,7-1c2.4-6.2,4.4-12.6,6-19
		c9.1-3.2,18.1-6.7,27-10.5c8.2-8.2,16.3-16.3,24.5-24.5c1.1-7.6,2.1-15.3,3-23c5.2-5.2,10.3-10.3,15.5-15.5
		C804.1,13.4,815.4,6.6,826.5-0.5z"/>
</g>
<g>
	<path class="st1" d="M1006.5,115.5c13,2.2,26,4.3,39,6.5c27.5,9.9,55.1,19.3,83,28c24.2,10.8,48.2,22.1,72,34
		c11.3,7.3,22.7,14.7,34,22c-1.8,3.4-4.2,6.4-7,9c-1,0.7-2,0.7-3,0c-17.4-15.5-36.4-28.9-57-40c-24-10.4-48.3-20.1-73-29
		c-31-8.4-62.3-15.3-94-20.5C1002.5,122.1,1004.5,118.8,1006.5,115.5z"/>
</g>
<g>
	<path class="st2" d="M1029.5,203.5c31.9,5.5,63.2,13.3,94,23.5c3.7,1.5,7,3.5,10,6c-1.8,3.6-4.1,6.8-7,9.5
		c-7.2-4.1-14.5-7.9-22-11.5c-21.8-3.1-43.1-8.1-64-15C1035.5,212.9,1031.9,208.7,1029.5,203.5z"/>
</g>
<g>
	<path class="st3" d="M956.5,240.5c51.3,12,101.9,26.1,152,42.5c14.8,8.5,29.2,17.3,43.5,26.5c0.8,3.1,0.7,6.1-0.5,9
		c-2.6-1.5-5.1-3.2-7.5-5c-3,4-5.5,8.3-7.5,13c0.5,0.3,1,0.7,1.5,1c5-2.3,10.2-3.8,15.5-4.5c5.1,4.7,9.7,9.7,14,15
		c-3.4,6.6-7.4,12.8-12,18.5c-48.1-23.9-97.4-44.7-148-62.5c-18.9-4.3-37.9-8.1-57-11.5c1.7-6.8,3.8-13.5,6.5-20
		C957.3,255.2,957.1,247.8,956.5,240.5z"/>
</g>
<g>
	<path class="st4" d="M1160.5,245.5c13,5.8,26,11.7,39,17.5c23.3,16.7,47.3,32.3,72,47c19,15.7,38,31.3,57,47
		c9.8,10.5,19.7,21,29.5,31.5c-1.5,4.2-4.5,7.2-9,9c-7.1-7.8-13.4-16.1-19-25c-8.2-8.8-16.3-17.7-24.5-26.5
		c-21.4-16.4-43.1-32.4-65-48c-28-16.2-57-30.5-87-43c-0.3-0.3-0.7-0.7-1-1C1155.4,251.3,1158,248.5,1160.5,245.5z"/>
</g>
<g>
	<path class="st5" d="M838.5,291.5c25.9,3.1,51.5,7.3,77,12.5c-1.5,2-2.9,4.2-4,6.5c-1.3,0.3-2.7,0.7-4,1c-21-2.9-42-5.7-63-8.5
		c-36-0.3-72,0.4-108,2c-30.7,5.5-61.4,11.2-92,17c-51.8,18.4-103.4,37.1-155,56c-31.1,20.7-62.4,41.1-94,61
		c-46.4,40.1-90.6,82.6-132.5,127.5c-16.1,20.5-32.4,40.8-49,61c8.1-16.8,16.7-33.5,26-50c2.6-5.2,5.9-9.9,10-14
		c23.2-24.2,46-48.7,68.5-73.5c24.1-21.6,48.5-42.9,73-64c48-26.3,96-52.7,144-79c30-10.7,60-21.3,90-32c31.6-6.8,63.3-13.5,95-20
		C760,294.3,799.3,293.2,838.5,291.5z"/>
</g>
<g>
	<path class="st6" d="M1156.5,304.5c23.9,13.9,47.6,28.2,71,43c0.3,0.5,0.7,1,1,1.5c-1,4.5-1.7,9-2,13.5c-3-0.6-5.8-1.6-8.5-3
		c-0.1,3.5,0.4,7,1.5,10.5c-0.8,4.3-3.1,7-7,8c-1.9-2.2-4.1-4.1-6.5-5.5c-2.9,2.8-5.8,5.8-8.5,9c-11.1-6.5-21.7-13.5-32-21
		c3.6-6.6,7.2-13.1,11-19.5c-3.1-4.1-6.6-8-10.5-11.5C1162.3,321.3,1159.2,313,1156.5,304.5z"/>
</g>
<g>
	<path class="st7" d="M947.5,307.5c13,2.2,26,4.3,39,6.5c27.5,9.9,55.1,19.3,83,28c24.2,10.8,48.2,22.1,72,34
		c11.3,7.3,22.7,14.7,34,22c-1.8,3.4-4.2,6.4-7,9c-1,0.7-2,0.7-3,0c-8-6.7-16-13.3-24-20c-9.3-6-18.7-12-28-18
		c-24.5-10.4-49.2-20.4-74-30c-32.3-9-64.9-16.2-98-21.5C943.5,314.1,945.5,310.8,947.5,307.5z"/>
</g>
<g>
	<path class="st8" d="M801.5,320.5c18.3,1,36.6,1.9,55,2.5c18,2.2,36,4,54,5.5c-5.8,27-12.1,53.8-19,80.5c-31.8-2.5-63.6-4-95.5-4.5
		c-26.6,0.3-53.1,2.5-79.5,6.5c-51.7,12.3-102.4,27.9-152,47c-36.5,16.9-71.9,35.9-106,57c-32.1,24.7-62.3,51.9-90.5,81.5
		c-17.3,19.3-34.7,38.7-52,58c-7.8,15.6-16.9,30.3-27.5,44c-3.9-8.4-7.2-17.1-10-26c0.8-3,1.5-6,2-9c-9.7-1.3-19.3-1.1-29,0.5
		c-3.3,7-5.7,14.3-7,22c1.7,3.9,3.5,7.7,5.5,11.5c7.4,5.1,15.2,9.3,23.5,12.5c-1.1,6.5-2.2,13-3.5,19.5c-7.5,13.3-14.1,27-20,41
		c-10.1,31.3-18.8,62.9-26,95c-0.4,0.9-1.1,1.6-2,2c-12.4-2.1-24.9-3.8-37.5-5c0.6-7.1-1.9-12.8-7.5-17c-1.2,5.6-2,11.3-2.5,17
		c-3.3-0.4-6.7-0.9-10-1.5c-0.9-0.4-1.6-1.1-2-2c6.4-23,16.4-44.1,30-63.5c-1.2-3.6-2.6-7.1-4-10.5c-6.6-1-13.3-1.9-20-2.5
		c-2.3-3.5-4.3-7.2-6-11c4.8-18.3,11.3-36,19.5-53c9.5-18.3,19.5-36.3,30-54c34.4-48.2,70.9-94.9,109.5-140
		c35.7-35.5,74.7-66.7,117-93.5c12-7.3,24-14.7,36-22c39.5-19.1,79.5-37.1,120-54c17.5-6,35.2-11.5,53-16.5
		C698.6,328.8,749.9,322.8,801.5,320.5z"/>
</g>
<g>
	<path class="st9" d="M937.5,332.5c25.9,6.8,51.6,14.3,77,22.5c-1.4,3.2-2.9,6.4-4.5,9.5c-1.5,13.9-0.1,27.6,4,41
		c11.5,12.5,23.3,24.6,35.5,36.5c13.3,5.3,26.7,10.7,40,16c12.6,3,25.2,5,38,6c10.7-8.3,21.7-16.2,33-23.5c0.3,0.3,0.7,0.7,1,1
		c-2.6,5.6-4.9,11.2-7,17c0.6,2.4,1.6,4.5,3,6.5c4.3,1.7,8.6,3.2,13,4.5c0.8,8.3,1.3,16.6,1.5,25c3.4-18.1,9.8-35.1,19-51
		c0.8-1.2,1.8-2.2,3-3c27.2,21.6,54.5,42.9,82,64c6.4-2.7,12.9-4.8,19.5-6.5c2.4,4.8,5.1,9.5,8,14c-0.9,2-2.3,3.6-4,5
		c0.6,0.9,1.2,1.8,2,2.5c3.5-2.6,7.2-4.9,11-7c3.8,4.7,7.5,9.5,11,14.5c-2.3,2.5-5,4.5-8,6c-8.3,0.3-16.7,0.7-25,1
		c-2.1,1.1-3.9,2.6-5.5,4.5c-1.9-4.2-4.7-7.4-8.5-9.5c-6.3-2.4-12.3-1.7-18,2c-2.7,3.7-2.2,4.2,1.5,1.5c4.4,2.5,8.9,4.8,13.5,7
		c1,0.5,1.2,1.2,0.5,2c-19.2,14.2-38.5,28.2-58,42c-19.3-21-40.2-40.2-62.5-57.5c-31.5-19.3-62.5-39.3-93-60c-22-8.7-44-17.3-66-26
		c-22-7.1-44-14.2-66-21.5c-0.3-1.5-0.7-3-1-4.5C930.6,386.7,933.9,359.6,937.5,332.5z"/>
</g>
<g>
	<path class="st10" d="M1238.5,355.5c5.1,0.6,9.4,2.7,13,6.5c-3.1,2.6-6.6,4.4-10.5,5.5c-0.3,3-0.1,6,0.5,9c2.6-0.2,5.1,0.2,7.5,1
		c1.7-0.6,2.9-1.7,3.5-3.5c5.5-2.6,10.5-1.9,15,2c-2,2.7-4,5.3-6,8c5.5-1.3,11.2-2,17-2c23.7,17,46.1,35.7,67,56
		c-13.7,9.9-27.6,19.8-41.5,29.5c-18-13.8-35.2-28.6-51.5-44.5c-11.6-8-23.1-16.2-34.5-24.5c1-3.6,2.9-6.9,5.5-10
		c-2.6-2.1-3.7-4.8-3.5-8c6.5-5.8,13-11.7,19.5-17.5c-1.8-1.7-3.5-3.5-5-5.5C1235.9,356.8,1237.3,356.2,1238.5,355.5z"/>
</g>
<g>
	<path class="st11" d="M1200.5,412.5c26.5,18,51.3,38.4,74.5,61c2.7,3.2,5.2,6.5,7.5,10c-2.9,2-5.9,3.9-9,5.5
		c-1.1,0.7-2.1,0.6-3-0.5c-4.7-6.3-9.3-12.7-14-19c-18.4-12.4-35.5-26.4-51.5-42C1203.3,422.5,1201.8,417.5,1200.5,412.5z"/>
</g>
<g>
	<path class="st12" d="M812.5,427.5c5.7-0.2,11.3,0,17,0.5c19.3,3.3,38.7,6.4,58,9.5c-31.9,96.3-64.8,192.3-98.5,288
		c-12.3-20.7-24.7-41.3-37-62c-0.7,15.7-0.7,31.3,0,47c4.4,16.4,8.6,32.9,12.5,49.5c-9.8,24.1-20.3,48-31.5,71.5
		c-57.7-53-115.3-106-173-159c35.7,64.4,72.3,128.4,110,192c1.8,3.3,3.3,6.6,4.5,10c-37,4.3-74,8.4-111,12.5
		c-23.7-19.8-47.3-39.7-71-59.5c1.3,12.5,3.1,25.2,5.5,38c4.5,7.2,9,14.3,13.5,21.5c-89-6.8-178-13.9-267-21.5
		c10-35.1,20.5-70.1,31.5-105c22.1-33.7,43.7-67.7,65-102c29.2-29.5,58.7-58.7,88.5-87.5c26.3-19.7,52.7-39.3,79-59
		c33.5-15.3,67.2-30.3,101-45c42-11.3,84-22.7,126-34C761.3,431.5,787,429.7,812.5,427.5z"/>
</g>
<g>
	<path class="st13" d="M920.5,443.5c22.1,4.2,44.1,8.7,66,13.5c41.2,20.7,82.2,41.7,123,63c27.3,22.7,54.7,45.3,82,68
		c26.2,29.6,52,59.4,77.5,89.5c19.7,29.7,39.3,59.3,59,89c12.3,41.7,24.7,83.3,37,125c2.4,58.7,4.1,117.3,5,176
		c-87-25.7-174.2-51-261.5-76c-0.2-1.1,0-2.1,0.5-3c12.6-17.5,24.6-35.2,36-53c-4.5,3.5-8.6,7.3-12.5,11.5
		c-25.7,8.6-51.6,16.7-77.5,24.5c-11-4.8-21.8-9.9-32.5-15.5c-18.7-9.3-37-19.2-55-29.5c58.1-49.6,116.1-99.5,174-149.5
		c-70.4,28.2-140.8,57-211,86.5c-0.8-1.6-1.3-3.2-1.5-5c-1.6-21.3-3-42.7-4-64c8.4-13.2,17.1-26.2,26-39c5.3-18,10.3-36,15-54
		c-18.3,19.8-36.8,39.5-55.5,59c-4.6-32.9-8.4-65.9-11.5-99c-4.6,69.4-9.8,138.7-15.5,208c2.8,7,5.7,14,8.5,21
		c0.5,11.7,0.5,23.4,0,35c9.1-4.8,17.9-10,26.5-15.5c-1.5-3.7-2.5-7.6-3-11.5c18.4-3.2,36.8-5.9,55-8c-21,24.5-41.9,49.2-62.5,74
		c-2.4,14.9-4.2,29.9-5.5,45c24.5,3.2,48.8,7,73,11.5c-22.5,2.4-44.8,5.4-67,9c54.3,4.6,108.7,9.3,163,14
		c-6.1,7.8-12.6,15.3-19.5,22.5c-0.7,0.7-0.7,1.3,0,2c7.7-6.3,15.3-12.7,23-19c54.6,15.3,109.1,30.8,163.5,46.5
		c-68.2-1.6-136.3-3.8-204.5-6.5c-4.2,0.2-8.3,0.3-12.5,0.5c-4,3-7.6,6.3-11,10c-2,1-4.2,1.5-6.5,1.5c-45.7-2.8-91.4-5.8-137-9
		c-40.8,115.4-81.8,230.7-123,346c-3-41.5-5.3-83.2-7-125c-6,7.2-11.9,14.5-17.5,22c-0.3-1.2-0.7-2.3-1-3.5
		c2.7-86.5,4.9-173,6.5-259.5c-14.3,12-28.7,24-43,36c4.2-18.2,9.4-36.2,15.5-54c-0.2-0.6-0.5-1.1-1-1.5
		c-42.7-12.8-85.4-25.8-128-39c-2-7.7-3.6-15.6-5-23.5c-21.7-1.4-43.3-3-65-5c8.7-14.3,17.3-28.7,26-43c55.2,17.3,110.6,34.3,166,51
		c0.9-0.1,1.8-0.4,2.5-1c2-3.6,4.2-7.1,6.5-10.5c-8.2-3.9-16.2-8.1-24-12.5c14.3-1.7,28.6-2.5,43-2.5c4.5,4.4,8.9,8.9,13,13.5
		c3.5-1.7,6.2-4.2,8-7.5c-1.9-3.5-3.2-7.1-4-11c0.8-6,2.1-11.8,4-17.5c5.8,9.8,11.3,19.8,16.5,30c3.2-23.2,5.2-46.6,6-70
		c-3.7-4.3-7.3-8.7-11-13c-0.7-9.7-0.7-19.3,0-29c10.3,6.7,20.7,13.3,31,20c12.8-5.7,25.5-11.7,38-18c-15.2,109-30.2,218-45,327
		c15.8-80.8,32-161.4,48.5-242c0.8,1.8,1.8,3.5,3,5c22.7-111.3,45.2-222.6,67.5-334c0.1-5-0.1-10-0.5-15c5.7-1.3,11.3-2.7,17-4
		C914,548.8,917.3,496.2,920.5,443.5z"/>
</g>
<g>
	<path class="st14" d="M1648.5,995.5c0,23.3,0,46.7,0,70c-3.2,61.3-13.4,121.7-30.5,181c-6.8,22.3-13.5,44.6-20,67
		c-10.8,27.6-22.1,54.9-34,82c-23.6,34.2-46.9,68.5-70,103c-0.7,1-0.7,2,0,3c3.7,6.9,7.2,13.9,10.5,21c-1,3.3-2.5,6.3-4.5,9
		c-9.2-7.2-18.3-14.3-27.5-21.5c-7-0.5-14-0.8-21-1c-7.2,12.5-14.2,25.2-21,38c1.1,4.7,1.9,9.6,2.5,14.5c9.3-15.3,18.7-30.7,28-46
		c0.7-0.9,1.6-1.1,2.5-0.5c2.7,1.7,5,3.7,7,6c-16.8,23.8-34,47.2-51.5,70.5c-0.2,10.7-0.7,21.3-1.5,32c-9.2,4.2-18.4,8.5-27.5,13
		c-7.4-3.9-14.9-7.8-22.5-11.5c-1.4-1.2-2.2-2.7-2.5-4.5c-1.3-5.3-2.7-10.7-4-16c-2.1-1.1-4.3-1.6-6.5-1.5
		c-17.6,34.3-35.2,68.5-53,102.5c9.4-8.6,19.1-16.9,29-25c0.6,0.2,1.1,0.5,1.5,1c1.6,5,2.9,10,4,15c-12.5,10.6-25.2,20.9-38,31
		c-7.3,14-14.7,28-22,42c-72.2,77.5-144.3,155-216.5,232.5c-9.8,3.5-19.7,7-29.5,10.5c0.3-11.8,1.6-23.4,4-35
		c8.9-13.3,18.3-26.3,28-39c1.3-1.6,2-3.2,2-5c-22.8,16.8-45.7,33.7-68.5,50.5c-6.6-1.8-12.9-4.4-19-8c-10.7-0.1-21.4,0.5-32,2
		c-14.4,13.4-29,26.4-44,39c-15.8,0.7-31.5,1.5-47,2.5c-6.3,0-12.7,0-19,0c8.2-29.6,16.2-59.3,24-89c-13.7,0.1-27.4-0.1-41-0.5
		c-12.7,14.6-25.5,29.1-38.5,43.5c-1.4-17.7-2.5-35.3-3.5-53c-25-1-50-1.8-75-2.5c-11.3,6.3-22.7,12.7-34,19
		c-7.4,25.3-15.1,50.4-23,75.5c-9.4-15.8-18.6-31.8-27.5-48c0.6-17.8,1.7-35.7,3.5-53.5c-0.3-1.8-0.7-3.7-1-5.5
		c-8.8,2.8-17.7,5.4-26.5,8c1.9-12.2,4.7-24.2,8.5-36c-8.6-7.9-17.1-15.9-25.5-24c-4.2-14.8-8.4-29.6-12.5-44.5c2.7-4,6-7.3,10-10
		c-7.2-7.5-14.7-14.7-22.5-21.5c3.9,7.8,8.4,15.5,13.5,23c-1.2,0.3-2.3,0.7-3.5,1c-4.8-0.6-9.7-1.1-14.5-1.5
		c-16.5-12.7-33.2-25.2-50-37.5c-5.8-12.3-11.7-24.7-17.5-37c-0.2,5.4-0.7,10.7-1.5,16c-6.5-3.2-13.1-5.9-20-8c0-5.7,0-11.3,0-17
		c-3.3,0-6.7,0-10,0c-0.3,5.7,0.2,11.4,1.5,17c3.4,4.5,6.6,9.2,9.5,14c-8.3,4.5-16.7,9-25,13.5c1.2,8.4,2.2,16.9,3,25.5
		c-0.1,1.6-0.4,3.1-1,4.5c-36.2,25.5-72.3,51-108.5,76.5c0.6-10.8,2.5-21.5,5.5-32c10.7-8.4,21.6-16.8,32.5-25c0.5-4.4,0.9-8.7,1-13
		c-14,6.5-28.1,12.5-42.5,18c1.1-15.7,2.2-31.3,3.5-47c5-12,10-24,15-36c15.2-8.6,30.5-16.9,46-25c3.8-19.3,2.3-38.1-4.5-56.5
		c-30.6-22.9-61-46.3-91-70c-53.6-51.6-103.6-106.3-150-164c-2.7-0.4-5.4-0.3-8,0.5c0.7,3.7,1.5,7.3,2.5,11c10,14,20,28,30,42
		c17.7,21,35.3,42,53,63c27.5,27.2,54.7,54.7,81.5,82.5c27.6,19.3,54.9,38.9,82,59c-7.2,2.1-14.6,3.4-22,4c-14.7-7-29.3-14-44-21
		c-15.7-12.1-31.7-23.7-48-35c-14.5-14.2-29.4-28-44.5-41.5c-17.3-19.6-35-39-53-58c-14.6-20.3-29.6-40.3-45-60
		c-12.8-24.1-26-47.9-39.5-71.5c-4.2-2.5-8.7-4.4-13.5-5.5c-2.9,1.2-5.6,2.9-8,5c-5.5-8-11.6-15.3-18.5-22c-8.1,1.7-16.1,3.7-24,6
		c4.3,8.9,8.3,17.9,12,27c-1.4,2.4-3.4,4.1-6,5c-7.2-12.6-13.5-25.6-19-39c11.9-2.1,23.5-4.9,35-8.5c-3.9-7.6-7.4-15.5-10.5-23.5
		c-1.8-12-3.6-24-5.5-36c1.3-2,3-3.7,5-5c5.2,3.4,9.6,2.6,13-2.5c-5.1-0.6-9.6-2.4-13.5-5.5c-2.9,1.5-5.7,3.2-8.5,5
		c-1.3-2.9-1.8-5.9-1.5-9c2.8-2.2,5.7-4.3,8.5-6.5c-3.3-5.7-6.7-11.3-10-17c1.3-7.4,3.2-14.5,5.5-21.5c2.7,6,5.3,12,8,18
		c7.3,5.6,14.3,11.6,21,18c1.3-2.5,1.8-5.2,1.5-8c5-1.7,10-3.6,15-5.5c0.9-1.7,1.2-3.5,1-5.5c-7.3,0.2-14.7,0-22-0.5
		c-4.5-2.7-8.5-5.8-12-9.5c2.3-7.5,1.6-14.8-2-22c-3,2.5-5.8,5.2-8.5,8c-2.7-11.4-4-23.1-4-35c1.8-0.8,3.6-1.7,5.5-2.5
		c-1-27.1-2.8-54.3-5.5-81.5c-3.2-16-5.9-32-8-48c4.3-6.5,10.5-10.2,18.5-11c7.6-0.1,10.5,3.6,8.5,11c-5,7.1-9.8,14.2-14.5,21.5
		c4.6,2.9,9.4,5.4,14.5,7.5c1.3-0.4,2.5-1.1,3.5-2c0.8,2,1.7,4,2.5,6c2.9-2.2,6.1-2.5,9.5-1c-1.1,2.9-1.8,5.9-2,9c-1.7,0-3.3,0-5,0
		c-0.2,1.4,0,2.7,0.5,4c5.2-1.4,10.4-3.1,15.5-5c2.4,2.4,4.4,5,6,8c-0.9,2.3-1.8,4.6-2.5,7c-2.5,0.7-5,1.4-7.5,2
		c-0.9,0.8-1.2,1.8-1,3c3.1-0.2,6.1-0.9,9-2c8.7,29.3,17.6,58.7,26.5,88c20.7,58.4,47.1,114.1,79,167
		c29.5,47.8,64.6,91.3,105.5,130.5c9.3,8.7,18.7,17.3,28,26c27.5,20.9,55.2,41.6,83,62c18.5,10.4,36.8,21.1,55,32
		c20,10.3,40,20.7,60,31c22.7,8.3,45.3,16.7,68,25c23.5,5.9,47,11.8,70.5,17.5c0.9-0.4,1.6-1.1,2-2c1-3.9,1.5-7.9,1.5-12
		c-37.2-9.8-73.8-21.3-110-34.5c-33.4-14.2-66.4-29.2-99-45c-26.9-16.6-53.6-33.6-80-51c-24.7-21.3-49.3-42.7-74-64
		c-39-40.7-73.9-84.5-104.5-131.5c-18.1-36.2-35.1-72.8-51-110c-5.9-15.7-11.4-31.5-16.5-47.5c1.1-2.1,2.6-4,4.5-5.5
		c4.2,0.8,8.3,1.5,12.5,2c-0.6-2.8-2-5.3-4-7.5c-3.4,0.1-6.8,0.9-10,2.5c-1.5-1.2-3.2-2.2-5-3c-1-7-1.3-14-1-21c4.4-0.3,8.7,0,13,1
		c14.5,37.2,30.3,73.9,47.5,110c15.9,29.5,32.6,58.5,50,87c6.6,9,13.6,17.6,21,26c-39.6-57.3-72.6-118.6-99-184
		c-29.2-96.6-37.3-194.9-24.5-295c7.9-1.3,15.7-1.3,23.5,0c1.8,3.8,2.6,7.8,2.5,12c-0.6,5.7-1,11.3-1,17c1.6,0.2,3.1-0.1,4.5-1
		c0.2-4,0.7-8,1.5-12c3.3-1.3,6.6-2.4,10-3.5c6.9-6.7,13.5-13.5,20-20.5c2.5,2,4.8,4.2,7,6.5c5.7,0.6,11.3,1.3,17,2
		c1.9,1.7,3.5,3.5,5,5.5c-1.7,1.7-3.1,3.7-4,6c1.5,2.2,2.3,4.6,2.5,7c-5.8-1.3-11.6-2.5-17.5-3.5c-3.2-1.7-3.6-3.7-1-6
		c-1.2-1.2-2.3-2.3-3.5-3.5c-2.9,11.1-0.2,20.5,8,28c0.7,2,1.3,4,2,6c1.8,0.6,3.7,1.3,5.5,2c-1.8,3.4-2.5,7-2,11
		c5.6,1.3,7.3,4.8,5,10.5c-2.8,2.8-6.2,3.8-10,3c-4.4,7.7-8.7,7.2-13-1.5c1.1-2.2,1.7-4.6,2-7c3.6,0.1,7.1,0.8,10.5,2
		c3.6-2,4.2-4.7,2-8c-1.4-1.7-3.3-2.3-5.5-2c0.2-3,0-6-0.5-9c-2.3,2.3-4.7,4.7-7,7c0-5.4,0.8-10.8,2.5-16c-4-0.3-8-0.7-12-1
		c-1.1-1.9-1.9-3.9-2.5-6c-2,1-3.6,2.3-5,4c0,7.6,0.8,15.1,2.5,22.5c-1.2,2.2-2.5,4.4-4,6.5c-6.7-4.5-13.6-8.8-20.5-13
		c-1.3,1.7-2.5,3.6-3.5,5.5c10.2,8.4,20.5,16.5,31,24.5c3.3-2.2,6.4-4.5,9.5-7c0.9,1.5,1.4,3.2,1.5,5c-0.9,5.1-2.3,10.1-4,15
		c4.6,1.5,9.2,2,14,1.5c3.9-3.7,7.5-7.5,11-11.5c3.3,6,6.7,12,10,18c-5.7,4.2-11.3,8.3-17,12.5c3.6,3.9,6.7,8.1,9.5,12.5
		c1.7,16,3.3,32,5,48c12,44,26,87.3,42,130c11.9,22.8,23.6,45.8,35,69c6.3,7.3,13,14.3,20,21c-3.1-8.8-6.7-17.4-11-26
		c-11.5-19-22.5-38.4-33-58c-6.5-18.4-13.1-36.7-20-55c-4.3-19-8.7-38-13-57c-3.3-27-6.4-54-9.5-81c1.6-34,2.6-68,3-102
		c7.3,2.2,14.6,4.2,22,6c0,12.7-0.3,25.3-1,38c6,1,12,2,18,3c0.4-11.7,1.3-23.4,2.5-35c78.4,29,156.9,57.6,235.5,86
		c1,0.5,1.2,1.2,0.5,2c-17.6,19.1-35.1,38.2-52.5,57.5c27.8-12.6,55.5-25.7,83-39.5c38.3,12.7,76.5,25.7,114.5,39
		c-1.3,2.3-3.1,4.5-5.5,6.5c-59.6,47.9-119,96.3-178,145c69.1-32.2,138.1-65.1,207-98.5c0.7,0.5,1.2,1.2,1.5,2
		c2.2,12.9,3.5,25.9,4,39c-1.8,1.8-3.7,3.7-5.5,5.5c4.4,4.1,7.6,8.9,9.5,14.5c0.9,10,1.2,20,1,30c-14.3,26.5-27.9,53.2-41,80
		c14.7-12.8,29.5-25.5,44.5-38c-5,167.9-10.2,335.9-15.5,504c49.5-163.1,99.2-326.1,149-489c11.3,20.8,22.3,41.8,33,63
		c-1.6-34.7-3.3-69.3-5-104c11.7-22.3,23.3-44.7,35-67c54,53.7,107.7,107.7,161,162c-1-3-2.3-6-4-9c-38.4-65.5-76.5-131.2-114.5-197
		c1-0.3,2-0.7,3-1c15.2,1.8,30.4,3.8,45.5,6c21.4-2.1,42.9-3.2,64.5-3.5c21.1,22.8,42.6,45.3,64.5,67.5c-2.5-13.7-5.5-27.4-9-41
		c-5.4-12.8-10.2-25.8-14.5-39c94.3,2.2,188.7,4.9,283,8c-9,38.5-21.5,75.8-37.5,112c-12.2,20.8-24.2,41.8-36,63
		c-16.3,20.3-32.7,40.7-49,61c-2.6,4.1-4.2,8.4-5,13c10.7-7.2,21-14.8,31-23c15.9-20.2,31.6-40.5,47-61c13.3-25.3,26.7-50.7,40-76
		c7.7-30,15.3-60,23-90c0.9-0.6,1.9-0.9,3-1c12.2,1.3,24.4,2.8,36.5,4.5c-6.6,27.8-13.1,55.6-19.5,83.5c-5.2,15.4-10.2,30.7-15,46
		c6.7-7.7,13.1-15.7,19-24c8.3-34.5,16-69.2,23-104c1.4-0.6,2.9-0.9,4.5-1c4.7,0.6,9.3,1.1,14,1.5c0.9,0.4,1.6,1.1,2,2
		c-10.5,37.1-20.3,74.2-29.5,111.5c8-16.7,16-33.3,24-50c4-19.6,7.9-39.3,11.5-59c22.4,0.2,44.8,1.6,67,4
		c-5.8,23.3-11.7,46.7-17.5,70c-9.5,27.6-18.9,55.3-28,83c-11.1,21.2-22.4,42.2-34,63c-45.6,55.6-93.4,109.4-143.5,161.5
		c-25.2,20.1-50.2,40.4-75,61c-29.1,18.1-58.4,35.7-88,53c-33.6,12.9-67.3,25.5-101,38c-40,8.7-80,17.3-120,26c-39,2.5-78,5-117,7.5
		c-22.5-2.2-45-4.5-67.5-7c-1.5,0.3-3,0.7-4.5,1c-1.3,3.9-2.6,7.7-4,11.5c3.3,1.3,6.7,2.7,10,4c21.3,2.4,42.6,4.6,64,6.5
		c39-2.2,78-4.4,117-6.5c6.8-0.2,13.5-1.2,20-3c33.6-8.2,67.3-16.2,101-24c35.1-13.1,70.1-26.5,105-40c29.8-17.1,59.5-34.4,89-52
		c27.1-21.4,54.4-42.4,82-63c25.5-25.5,51-51,76.5-76.5c7.7-8,15-16.4,22-25c15.8-23.8,31.8-47.5,48-71c11-20,22-40,33-60
		c10.7-27.3,21.3-54.7,32-82c5.3-23,10.5-46,15.5-69c19.1-2.9,38.1-6.4,57-10.5c-17.6-6.5-35.3-12.6-53-18.5
		c1.7-15.6,3.2-31.3,4.5-47c0.2-33.2,0.7-66.3,1.5-99.5c-3.6-34.5-7.1-69-10.5-103.5c-14.3-45.7-28.7-91.3-43-137
		c-22.1-46.3-46.8-90.9-74-134c-34.6-41.6-69.6-83-105-124c-0.7-0.7-0.7-1.3,0-2c8.8-7.8,17.3-16,25.5-24.5c1.7-1.8,3.7-2.4,6-2
		c15,14,30.4,27.7,46,41c16.7,16.7,33.3,33.3,50,50c11.4,7.7,22.4,15.8,33,24.5c10.2,19.7,20.3,39.3,30.5,59c2.8,9.4,5.8,18.7,9,28
		c7.7,16,15.3,32,23,48c3.3,22,6.7,44,10,66c5,10.7,10,21.3,15,32c12.7,6.3,25.6,11.6,38.5,16c-2.3-6.7-4.3-13.6-6-20.5
		c2.2-4.9,5.1-9.4,8.5-13.5c4.8,0.9,9.7,1.9,14.5,3c10.6,51.6,21.1,103.3,31.5,155C1645.5,955.7,1647,975.7,1648.5,995.5z
		 M1301.5,1705.5c-3.1,2.6-6.1,5.4-9,8.5c-14.7,5.3-29.3,10.7-44,16c-6,4.3-12,8.7-18,13c-6.6,1.8-13.3,3.3-20,4.5
		c2.8-5.5,6.5-10.3,11-14.5C1248.1,1723.5,1274.7,1714.4,1301.5,1705.5z"/>
</g>
<g>
	<path class="st15" d="M1335.5,532.5c13.8,19,28.7,37.3,44.5,55c8.9,13.3,18.3,26.3,28,39c14.7,24.7,29.3,49.3,44,74
		c16.4,41.8,32.4,83.8,48,126c12.5,41.5,20.9,83.8,25,127c2,26,3.8,52,5.5,78c-2.1,27.8-5.1,55.4-9,83c-20.6-5.8-41.2-11.3-62-16.5
		c-24-8.8-47.8-17.9-71.5-27.5c0.7-23.7,1.8-47.3,3.5-71c-1.4-23.7-2.9-47.3-4.5-71c-5.2-25-10.5-50-16-75
		c-8.2-24.9-16.2-49.9-24-75c-9.7-19.8-19.7-39.5-30-59c-17.7-24.3-35.3-48.7-53-73c-13.5-15.2-26.7-30.7-39.5-46.5
		c27.6-20.1,55.6-39.6,84-58.5c12.2,12.3,24.3,24.6,36.5,37c9.3,13,18.9,25.6,29,38c36.3,61.6,66.9,125.9,92,193
		c15.2,63.9,25.2,128.5,30,194c2.1,12.3,4.1,24.7,6,37c0.7-32.3,0.7-64.7,0-97c-3.3-25.3-6.7-50.7-10-76
		c-10.1-40.3-21.4-80.3-34-120c-11.7-23.8-23.7-47.5-36-71c-11.2-18.2-22.2-36.5-33-55c-19-23.3-38.3-46.3-58-69
		C1331.6,545.6,1333.1,539,1335.5,532.5z"/>
</g>
<g>
	<path class="st16" d="M688.5,841.5c15.4,5.8,30.5,12.2,45.5,19c-2.3,7.2-5.2,14.4-8.5,21.5c3,7,6,14,9,21c-1.7,4.1-4.5,5.9-8.5,5.5
		C713,886.4,700.5,864.1,688.5,841.5z"/>
</g>
<g>
	<path class="st17" d="M362.5,939.5c1.3-0.7,2.8-1,4.5-1c30.2,0.7,60.3,1.5,90.5,2.5c7.2,12.8,13.3,26,18.5,39.5
		C438.2,966.7,400.4,953.1,362.5,939.5z"/>
</g>
</svg>
